<?xml version="1.0" encoding="UTF-8"?>
<svg id="Layer_2" data-name="Layer 2" xmlns="http://www.w3.org/2000/svg" viewBox="0 0 561.36 575.47">
  <defs>
    <style>
      .cls-1 {
        fill: #fff;
        stroke-width: 0px;
      }
    </style>
  </defs>
  <g id="Layer_1-2" data-name="Layer 1">
    <g>
      <g>
        <path class="cls-1" d="m217.23,551.56c1.66,1.94,2.52,2.9,3.34,3.9,4.84,5.87,9.48,11.93,14.64,17.5,1.42,1.53,4.5,2.37,6.65,2.1,1.4-.17,3.51-2.88,3.54-4.5.28-11.88.21-23.78.05-35.67-.04-3.21-2.79-5.35-5.98-5.15-3.22.2-5.36,1.9-5.49,5.21-.18,4.54-.05,9.08-.05,13.63,0,1.18,0,2.36,0,3.54-.42.13-.83.26-1.25.38-.36-.56-.68-1.17-1.1-1.68-4.88-6.01-9.75-12.02-14.66-18-2.09-2.55-4.73-4.18-8.06-2.89-3.06,1.19-3.46,3.98-3.44,6.98.07,10.42-.01,20.84,0,31.27,0,4.97,1.97,7.35,5.92,7.25,3.84-.09,5.85-2.6,5.88-7.45.03-5.07,0-10.13,0-16.44Z"/>
        <path class="cls-1" d="m308.1,551.02c-.02,9.6,3.24,15.9,9.68,20.47,8.69,6.17,22.06,4.94,28.05-2.55,1.84-2.3,2.87-4.78.41-7.06-2.35-2.16-4.99-3.35-8.18-.76-1.76,1.43-4.12,2.65-6.33,2.89-5.14.56-10.19-3.35-12.02-8.62-1.59-4.58.23-10.21,4.21-13.04,4.67-3.33,8.43-3.04,13.68,1.04,2.81,2.18,6.91,1.89,8.95-.72,2.47-3.15.65-5.37-1.74-7.42-6.91-5.97-14.74-7.48-22.98-3.61-8.77,4.12-13.14,11.54-13.74,19.38Z"/>
        <path class="cls-1" d="m279.17,544.86c-1.58-2.01-2.54-3.26-3.52-4.49-2.41-3.02-4.65-6.2-7.28-9.02-2.27-2.43-5.35-2.66-7.98-.7-2.75,2.04-2.45,4.73-.5,7.39,3.23,4.41,6.32,8.92,9.59,13.3,2.61,3.51,4.48,7.11,3.95,11.73-.3,2.62-.12,5.36.27,7.98.45,3.07,2.57,4.59,5.68,4.4,3.21-.19,4.77-2.09,4.82-5.23.05-2.81.18-5.63-.06-8.42-.35-4.01,1.06-7.05,3.7-10.08,3.75-4.31,7.23-8.94,10.19-13.82,1.05-1.73,1.17-5.21.1-6.79-1.74-2.55-5.03-2.11-7.58-.49-1.29.81-2.18,2.29-3.15,3.54-2.6,3.33-5.15,6.7-8.21,10.69Z"/>
        <path class="cls-1" d="m401.78,558.49v.03c7.74,0,15.47.03,23.21-.02,2.8-.02,5.01-1.08,5.22-4.25.23-3.53-2.34-4.24-5.01-4.24-15.47-.03-30.95.03-46.42.08-2.91.01-5.2,1.35-5.13,4.36.07,3,2.34,4.1,5.32,4.06,7.6-.1,15.21-.03,22.81-.03Z"/>
        <path class="cls-1" d="m151.9,558.51v.03c7.73,0,15.46.06,23.19-.03,2.76-.04,5.15-1.23,5.13-4.35-.02-2.92-2.23-4.09-4.93-4.08-15.2,0-30.39.03-45.59.11-2.82.01-5.82.72-5.8,4.08.02,3.49,2.85,4.31,6,4.27,7.33-.08,14.66-.02,22-.02Z"/>
        <path class="cls-1" d="m217.23,551.56c0,6.31.02,11.37,0,16.44-.03,4.85-2.03,7.36-5.88,7.45-3.95.09-5.92-2.29-5.92-7.25,0-10.42.08-20.84,0-31.27-.02-3,.38-5.79,3.44-6.98,3.33-1.3,5.96.34,8.06,2.89,4.91,5.98,9.79,11.99,14.66,18,.42.52.73,1.12,1.1,1.68.42-.13.83-.26,1.25-.38,0-1.18,0-2.36,0-3.54,0-4.54-.14-9.09.05-13.63.13-3.31,2.27-5.01,5.49-5.21,3.19-.2,5.93,1.94,5.98,5.15.16,11.89.23,23.79-.05,35.67-.04,1.61-2.14,4.32-3.54,4.5-2.14.27-5.22-.57-6.65-2.1-5.16-5.57-9.8-11.63-14.64-17.5-.82-1-1.68-1.97-3.34-3.9Z"/>
        <path class="cls-1" d="m308.1,551.02c.6-7.84,4.97-15.26,13.74-19.38,8.24-3.87,16.07-2.36,22.98,3.61,2.38,2.06,4.21,4.27,1.74,7.42-2.04,2.61-6.15,2.91-8.95.72-5.25-4.09-9-4.38-13.68-1.04-3.98,2.84-5.8,8.46-4.21,13.04,1.83,5.27,6.88,9.18,12.02,8.62,2.21-.24,4.57-1.46,6.33-2.89,3.19-2.59,5.83-1.4,8.18.76,2.47,2.27,1.43,4.76-.41,7.06-5.99,7.49-19.36,8.72-28.05,2.55-6.44-4.57-9.71-10.87-9.68-20.47Z"/>
        <path class="cls-1" d="m279.17,544.86c3.06-3.99,5.61-7.36,8.21-10.69.98-1.25,1.87-2.73,3.15-3.54,2.55-1.61,5.85-2.06,7.58.49,1.08,1.58.96,5.06-.1,6.79-2.96,4.88-6.44,9.51-10.19,13.82-2.63,3.03-4.05,6.07-3.7,10.08.24,2.79.1,5.61.06,8.42-.05,3.14-1.61,5.04-4.82,5.23-3.1.18-5.23-1.34-5.68-4.4-.39-2.62-.56-5.36-.27-7.98.53-4.62-1.34-8.23-3.95-11.73-3.27-4.38-6.35-8.9-9.59-13.3-1.95-2.66-2.25-5.35.5-7.39,2.63-1.96,5.71-1.72,7.98.7,2.63,2.82,4.88,5.99,7.28,9.02.98,1.23,1.95,2.48,3.52,4.49Z"/>
        <path class="cls-1" d="m401.78,558.49c-7.6,0-15.21-.06-22.81.03-2.98.04-5.25-1.06-5.32-4.06-.07-3.01,2.22-4.35,5.13-4.36,15.47-.05,30.95-.12,46.42-.08,2.68,0,5.24.71,5.01,4.24-.21,3.17-2.42,4.23-5.22,4.25-7.74.05-15.47.02-23.21.02v-.03Z"/>
        <path class="cls-1" d="m151.9,558.51c-7.33,0-14.66-.05-22,.02-3.15.03-5.98-.78-6-4.27-.02-3.37,2.98-4.07,5.8-4.08,15.2-.08,30.39-.1,45.59-.11,2.71,0,4.91,1.16,4.93,4.08.02,3.12-2.37,4.32-5.13,4.35-7.73.1-15.46.03-23.19.03v-.03Z"/>
      </g>
      <g>
        <path class="cls-1" d="m37.69,328.2c5.51-3.24,10.37-5.88,14.93-8.95.92-.62,1.02-2.87,1.03-4.37.04-26.08.03-52.16-.02-78.24,0-2.85-.3-5.88,2.69-7.43,2.98-1.55,5.51-.07,8.08,1.68,9.7,6.63,19.51,13.1,29.3,19.61.85.57,1.81.98,3.83,2.05,0-4.87.43-8.97-.1-12.95-.81-6.15,1.46-9.97,6.86-12.89,5.95-3.22,11.59-7.05,17.19-10.88,3.08-2.11,5.78-2.14,8.78-.07,2.74,1.89,5.94,3.26,8.28,5.54,1.71,1.66,3.28,4.39,3.32,6.68.29,16.71.15,33.43.23,50.15,0,1.65.57,3.3.96,5.39,3.52-2.05,6.01-3.97,8.83-5.05,5.38-2.06,7.06-5.72,6.19-11.17-.38-2.35.23-4.87-.2-7.2-1.07-5.68,1.6-9.1,6.13-11.82,5.37-3.23,10.63-6.65,15.94-9.97,2.3-1.44,3.58-6.81,1.64-8.63-1.01-.95-3.11-1-4.71-.95-.91.03-1.77,1.1-2.68,1.66-3.32,2.05-6,1.7-8.07-1.03-2.29-3.03-2.21-5.89.9-8.45,4.11-3.39,8.53-6.41,12.86-9.53,5.73-4.13,11.38-8.39,17.33-12.19,1.76-1.13,4.76-1.79,6.49-1.04,1.4.6,2.41,3.63,2.45,5.6.23,11.23.12,22.47.13,33.7,0,.74.08,1.48.19,3.53,6.57-8.04,12.85-6.66,19.77.26,0-3.36,0-5.29,0-7.22-.04-8.56.11-17.13-.22-25.67-.14-3.77,1.04-6.23,4.48-7.49,2.83-1.03,3.64-2.83,3.49-5.83-.35-6.94-.08-13.91-.45-20.85-.22-4.17,1.41-6.88,5.25-7.7,3.95-.85,4.58-3.08,4.41-6.61-.33-6.67-.03-13.38-.42-20.05-.27-4.71,1.49-7.8,5.82-9.27,3.44-1.17,4.86-3.18,4.24-6.85-.77-4.56.16-8.13,5.59-9.22,1.16-.23,2.66-2.06,2.86-3.34,2.12-13.48,4.15-26.98,5.87-40.51.41-3.26.93-5.8,3.96-7.7,1.16-.72,1.89-2.98,1.9-4.54.08-17.39.01-34.77-.1-52.16-.02-2.79.48-5.15,3.43-6.03,3.11-.92,5.37,1.43,5.37,5.5,0,17.39,0,34.77-.08,52.16-.01,2.5.24,4.43,2.51,6.24,1.39,1.1,2.25,3.76,2.16,5.67-.61,14.07,3.64,27.39,5.96,41.01.47,2.76,2.16,4.36,4.67,4.66,3.21.38,3.98,2.17,3.82,4.93-.03.53.05,1.08-.01,1.6-.5,4.27.14,7.64,4.9,9.51,3.79,1.48,5.15,4.79,4.91,9.09-.37,6.8-.04,13.64-.2,20.46-.06,2.44.47,4.1,2.99,4.86,5.03,1.5,6.61,4.95,6.3,10.09-.39,6.26.02,12.57-.15,18.85-.06,2.3.59,3.78,2.7,4.65,4.32,1.79,5.51,5.04,5.36,9.62-.32,9.7-.1,19.42-.1,30.33,5.92-4.76,11.47-6.56,17.26-.11.21-1.99.39-2.95.39-3.91,0-9.09-.26-18.2.08-27.28.09-2.31,1.44-5.33,3.23-6.69,11.45-8.72,23.19-17.08,34.84-25.54.64-.47,1.35-.85,2.04-1.26,4.6-2.69,7.88-.92,7.92,4.37.06,7.76.03,15.51.04,23.27,0,18.32.07,36.65-.05,54.97-.02,2.59.76,4.2,2.91,5.58,3.88,2.5,7.61,5.24,12.1,8.36.28-2.21.59-3.57.61-4.94.13-12.44.35-24.88.22-37.31-.04-4.01,1.43-6.48,4.82-8.39,12.53-7.09,24.97-14.34,37.48-21.48,6.19-3.53,10.84-.78,10.86,6.33.05,26.88.12,53.76.07,80.65,0,2.72.72,4.41,3.19,5.75,4.05,2.21,7.89,4.81,12.62,7.75.14-2.23.3-3.59.31-4.94,0-18.99.03-37.98-.05-56.97-.01-3.02.54-5.49,3.32-7.18,2.91-1.77,5.11-.08,7.36,1.3,4.32,2.65,8.79,5.11,12.79,8.19,1.6,1.23,2.98,3.88,3,5.89.2,21.93.15,43.87.06,65.8-.01,2.68.58,4.49,3.2,5.7,2.65,1.23,5.04,3.01,7.61,4.42,3.67,2,5.21,1.11,5.21-3.02.02-9.23-.04-18.46-.06-27.68-.01-6.12,2.38-7.63,7.52-4.58,7.22,4.29,14.48,8.54,21.43,13.25,1.79,1.21,3.46,4.06,3.49,6.18.28,18.32.23,36.64.13,54.96-.03,5.53-3.43,8.44-9.42,8.45-46.14.02-92.28.02-138.42.03-11.37,0-22.74,0-34.1-.02-5.54-.01-7.39-1.83-7.42-7.49-.1-19.12-.17-38.25-.21-57.37-.01-4.97,1.17-5.54,5.57-3.08,6.11,3.42,12.28,6.73,19.07,10.45,0-4.92.11-8.88-.09-12.83-.04-.79-1.08-1.77-1.9-2.23-10.32-5.84-20.63-11.73-31.08-17.34-4.35-2.34-6.18-1.01-6.18,3.9-.03,25.81-.04,51.62-.04,77.44,0,6.57-1.94,8.73-7.94,8.77-6.04.04-8.3-2.23-8.31-8.57-.03-31.03-.05-62.06-.04-93.08,0-6.64,5.44-9.71,11.28-6.42,6.11,3.44,12.19,6.93,18.4,10.46,2.39-6.92,1.47-9.62-3.89-12.74-6.45-3.75-12.86-7.59-19.42-11.12-1.24-.67-3.45-.69-4.69-.02-3.98,2.14-7.66,4.81-11.54,7.13-3.2,1.91-4.32,4.46-4.31,8.26.12,32.23.04,64.46.01,96.69,0,7.34-1.89,9.23-9.21,9.23-11.1,0-22.2,0-33.3,0-6.76,0-8.8-2.03-8.81-8.84-.02-49.48-.02-98.97-.03-148.45,0-6.82.03-13.64-.05-20.46-.05-4.15-3.27-5.94-6.79-3.71-4.79,3.03-7.81,6.64-7.78,13.2.24,53.36.09,106.72.04,160.09,0,6.26-1.78,8.18-8.03,8.24-9.76.1-19.53.07-29.29.02-5.55-.02-7.59-2.14-7.6-7.85-.04-25.28-.01-50.55-.16-75.83-.01-2.47-1.07-4.93-1.64-7.39-2.39.84-4.9,1.43-7.13,2.57-10.78,5.53-21.43,11.33-32.25,16.78-3.92,1.98-5.54,4.45-5.47,9.03.29,18.45.15,36.91.15,55.37,0,5.27-1.91,7.26-7.23,7.26-48.28.04-96.56.06-144.84.05-5.21,0-8.45-3.28-8.49-8.51-.06-9.5.06-18.99-.02-28.49-.03-3.32,1.3-5.55,4.18-7.11,5.04-2.72,9.95-5.68,15.03-8.32,3.11-1.62,4.48-3.88,4.29-7.38-.23-4.11-2.76-5.62-6.45-3.52-3.01,1.71-5.82,3.77-8.88,5.37-2.43,1.27-5.01,4.04-7.89,1.23-2.15-2.1-.82-9.21,2.05-11.24,4.89-3.47,9.94-6.71,14.97-9.97,3.24-2.1,6.5-4.17,9.87-6.04,5.44-3.01,9.64-.58,9.69,5.64.09,10.7.04,21.4.04,32.1,0,1.3,0,2.61,0,5.05Zm250.95-76.14c-.17,0-.33,0-.5,0,0-29.79,0-59.59,0-89.38,0-1.06.29-2.41-.23-3.13-.91-1.25-2.41-2.98-3.55-2.89-1.22.09-2.54,1.89-3.37,3.22-.48.77-.11,2.08-.11,3.15,0,42.89-.01,85.78,0,128.66,0,16.57.06,33.13.1,49.7,0,2.83.97,5.27,4.18,5.23,3.21-.03,3.51-2.56,3.5-5.18-.03-29.79-.02-59.59-.02-89.38Zm-98.84,20.63c1.69-.69,3.19-1.15,4.55-1.88,5.15-2.77,10.23-5.67,15.38-8.43,8.09-4.34,14.1-.84,14.11,8.22.03,14.3.03,28.59.03,42.89,0,2.55.26,5.13,3.51,5.24,3.49.12,2.98-2.69,2.98-4.91.01-14.7-.62-29.43.23-44.08.57-9.83-1.16-17.12-11.36-20.36-.6-.19-1.06-1-1.64-1.09-1.27-.19-2.83-.56-3.83-.02-5.41,2.88-10.46,6.51-16.05,8.94-6.9,2.99-9.83,7.47-7.9,15.5Zm-62.16,15.05h-.03c0-15.63.01-31.26-.01-46.89,0-2.68-.53-5.55-3.79-5.56-3.14-.01-3.42,2.75-3.42,5.31.03,30.99.06,61.98.05,92.98,0,2.86,1.25,4.83,3.99,5.02,3.24.22,3.24-2.36,3.23-4.76-.03-15.36-.01-30.73-.01-46.09Zm283.29,37.98h-.07c0-9.89.01-19.77,0-29.66,0-2.48-.64-4.7-3.67-4.68-2.8.02-3.47,2.08-3.46,4.43.02,19.51.04,39.02.13,58.52.01,2.56.78,5.07,3.98,4.91,3.11-.15,3.12-2.68,3.11-5.06-.03-9.49-.01-18.97-.01-28.46Zm-340.15-24.15c1.27-.53,2.32-.8,3.17-1.36,7.8-5.09,15.59-10.19,23.33-15.37,2.15-1.44,4.39-3.29,2.34-6.18-1.97-2.77-4.51-2.07-7.01-.39-6.86,4.6-13.77,9.12-20.63,13.71-1.32.88-2.95,1.75-3.61,3.04-.68,1.36-.67,3.29-.34,4.83.16.74,1.78,1.15,2.75,1.72Zm412.99,37.57s-.09,0-.13,0c0-5.47.02-10.94,0-16.42-.01-2.36-.91-4.78-3.43-4.33-1.38.25-3.3,2.83-3.35,4.41-.29,10.67-.14,21.35-.16,32.03,0,2.52.95,4.12,3.68,4.18,2.96.06,3.43-1.86,3.42-4.25-.04-5.2-.01-10.41-.01-15.62Zm-400.27-9.5s-.03,0-.05,0c0-3.59.31-7.23-.15-10.76-.18-1.39-2.1-2.56-3.23-3.82-1.14,1.23-3.21,2.42-3.27,3.71-.34,7.04-.37,14.11-.05,21.15.06,1.22,2.3,2.34,3.54,3.5,1.07-1.26,2.88-2.42,3.07-3.81.46-3.26.15-6.64.15-9.97Zm184.15-220.07c8.34-2.27,9.89-4.23,9.88-11.73,0-5.6.15-11.2-.13-16.79-.07-1.36-1.53-2.65-2.35-3.97-.91,1.26-2.48,2.46-2.6,3.79-.38,4.37-.21,8.78-.31,13.18-.08,3.88.79,7.96-3.13,10.89-.89.67-.82,2.63-1.37,4.63Zm1.22,45.42h-.03c0-2.79.36-5.66-.15-8.35-.27-1.4-2.07-3.46-3.2-3.48-1.25-.02-3.54,1.9-3.62,3.09-.38,5.69-.41,11.44.03,17.13.1,1.26,2.6,2.33,4,3.48.99-1.3,2.58-2.49,2.84-3.92.47-2.58.13-5.3.13-7.96Zm151.62,108.57c0,3.06-.35,6.19.16,9.16.23,1.32,2.05,2.99,3.41,3.26.9.18,3.21-1.79,3.23-2.85.17-6.38.03-12.78-.44-19.15-.08-1.11-2.21-2.07-3.39-3.11-.99,1.16-2.66,2.23-2.84,3.5-.42,3-.14,6.11-.13,9.17Zm-281.73,43.47c0,.61,0,1.22-.01,1.82,1.35,1.1,3.06,3.35,3.97,3.06,1.64-.51,3.54-2.39,3.88-4.01.22-1.05-2.03-3.63-3.33-3.74-1.41-.12-3,1.82-4.51,2.86Zm326.8,23.15c-2.52-1.9-4.02-3.89-5.33-3.78-1.34.11-3.42,2.27-3.47,3.59-.05,1.27,1.99,3.51,3.32,3.67,1.32.16,2.89-1.73,5.48-3.48Zm-365.26-18c-2.27-1.76-3.67-3.67-5.04-3.65-1.14.02-3.24,2.41-3.11,3.56.16,1.45,1.94,3.34,3.41,3.79.88.27,2.49-1.86,4.74-3.7Zm318.04-14.15c-1.33,2.06-2.63,3.19-2.54,4.19.09,1.03,1.51,2.68,2.39,2.72.96.03,2.75-1.48,2.77-2.34.02-1.19-1.29-2.39-2.62-4.56Z"/>
        <path class="cls-1" d="m193.4,333.91c0,9.35.02,18.69,0,28.04-.02,5.38-2.48,7.58-8.41,7.62-6.53.04-9.26-2.15-9.26-7.62-.02-16.16-.07-32.31.15-48.47.02-1.75,1.32-4.04,2.76-5.1,3.19-2.35,6.77-4.21,10.32-6.04,3.55-1.83,4.43-1.23,4.45,2.73.03,9.61,0,19.23.01,28.84Z"/>
      </g>
      <g>
        <path class="cls-1" d="m347.13,428.69c-7.81,0-15.63,0-23.44,0-5.94,0-11.89.11-17.83-.01-5.52-.12-7.94-2.44-7.98-7.93-.05-6.38.22-12.78.47-19.16.16-4.17,2.51-6.56,6.6-7.08,2.2-.28,4.44-.34,6.66-.35,29.72-.07,59.44-.11,89.16-.15,8.34-.01,10.29,2.54,11,10.9.71,8.32-2.17,14.1-8.2,19.79-14.14,13.36-27.57,27.48-41.27,41.3-.79.8-1.46,1.72-2.84,3.36,4.37,0,7.87.03,11.36,0,10.1-.11,20.2-.21,30.3-.4,7.69-.14,10.45,2.47,10.52,10.21.04,5.2.06,10.4.07,15.6.01,7.15-2.38,9.6-9.61,9.61-29.72.03-59.44.02-89.15,0-14.64,0-15-.7-15.37-15.33-.16-6.32,1.73-10.75,6.3-15.17,14.09-13.64,27.68-27.78,41.46-41.73.72-.73,1.39-1.5,2.08-2.25-.1-.4-.19-.8-.29-1.2Z"/>
        <path class="cls-1" d="m202.36,486.57c-5.8,0-11.6.08-17.39-.04-2.57-.05-3.93.79-4.96,3.31-6.98,17.1-7.12,14.34-21.77,14.5-6.09.07-12.19.07-18.28-.05-6.36-.12-9.1-4.03-6.38-9.72,7.02-14.74,14.36-29.32,21.54-43.98,7.58-15.46,15.24-30.87,22.62-46.42,3.4-7.17,8.59-10.54,16.57-10.13,5.93.3,11.9.21,17.83-.09,7.02-.35,11.6,2.91,14.56,8.91,14.89,30.22,29.76,60.46,44.61,90.7,3.27,6.66.81,10.74-6.54,10.79-8.77.07-17.54-.11-26.31.07-4.4.09-8.8-2.11-9.44-5.44-.03-.15-.17-.26-.2-.4-2.41-13.95-3.12-12.11-16.44-12.08m-19.17-27.87h19.17c-3.42-6.8-6.53-12.98-10.04-19.95-3.34,7.3-6.19,13.54-9.13,19.95Z"/>
        <path class="cls-1" d="m497.21,431.27c6.28-9.92,12.37-18.89,17.75-28.27,3.66-6.37,8.33-9.54,15.79-9.11,6.81.39,13.66.07,20.5.12,1.47.01,2.97.17,4.41.51,5.53,1.29,7.32,5.21,4.15,9.96-7.34,10.99-14.92,21.81-22.44,32.69-5.74,8.3-11.44,16.64-17.31,24.84-2.62,3.66-3.83,7.51-3.73,12.02.18,7.57.05,15.15-.02,22.73-.05,5.32-2.21,7.48-7.64,7.54-7.43.08-14.86.09-22.29.05-6.66-.04-9.02-2.41-9.04-9.22-.03-7.28-.09-14.57.28-21.83.23-4.43-1.12-8.02-3.62-11.55-12.62-17.8-25.14-35.67-37.69-53.53-.94-1.34-1.93-2.65-2.68-4.09-2.18-4.18-.57-8.12,3.95-9.44,1.82-.53,3.8-.68,5.71-.7,7.73-.07,15.46.2,23.18-.1,5.05-.19,8.44,1.64,11.02,5.92,5.44,9.02,11.11,17.9,16.7,26.84.84,1.35,1.74,2.66,3.03,4.63Z"/>
        <path class="cls-1" d="m42.55,468.98c13.05,0,25.36.01,37.68,0,6.54,0,13.08-.1,19.61-.08,6.09.02,8.49,2.21,8.75,8.14.27,6.38.44,12.77.5,19.16.05,5.42-2.75,8.23-8.21,8.23-29.87,0-59.74-.02-89.61-.09-6.23-.01-8.34-2.37-8.33-9.37.03-28.08.13-56.16.2-84.25,0-2.97-.1-5.95-.01-8.92.13-4.14,2.34-7,6.42-7.22,8.59-.46,17.22-.67,25.82-.46,4.95.13,7.13,3.33,7.14,8.88.02,20.21.03,40.42.05,60.63,0,1.6,0,3.2,0,5.33Z"/>
      </g>
    </g>
  </g>
</svg>